# Blender v3.0.0 OBJ File: ''
# www.blender.org
mtllib cube.mtl
o Cube
v 1.000000 1.000000 -1.000000
v 1.000000 -1.000000 -1.000000
v 1.000000 1.000000 1.000000
v 1.000000 -1.000000 1.000000
v -1.000000 1.000000 -1.000000
v -1.000000 -1.000000 -1.000000
v -1.000000 1.000000 1.000000
v -1.000000 -1.000000 1.000000
vt 1.002323 0.003937
vt -0.003346 1.002992
vt -0.008307 -0.002677
vt 0.997047 0.009213
vt 0.001299 0.998346
vt 0.004606 0.004252
vt 1.005315 0.000000
vt -0.008622 1.004015
vt 0.006260 0.000000
vt 0.996732 0.003937
vt -0.000669 0.999685
vt 0.002638 -0.001023
vt 1.000354 0.002284
vt -0.000354 0.998031
vt -0.000354 0.007244
vt 0.995394 0.008583
vt -0.005315 1.007638
vt 0.006260 -0.001338
vt 1.002323 1.002992
vt 1.003661 1.001654
vt 1.005315 1.002362
vt 1.006653 0.998031
vt 1.002008 0.994724
vt 1.005315 1.004331
vn 0.0000 1.0000 0.0000
vn 0.0000 0.0000 1.0000
vn -1.0000 0.0000 0.0000
vn 0.0000 -1.0000 0.0000
vn 1.0000 0.0000 0.0000
vn 0.0000 0.0000 -1.0000
usemtl Material
s off
f 5/1/1 3/2/1 1/3/1
f 3/4/2 8/5/2 4/6/2
f 7/7/3 6/8/3 8/9/3
f 2/10/4 8/11/4 6/12/4
f 1/13/5 4/14/5 2/15/5
f 5/16/6 2/17/6 6/18/6
f 5/1/1 7/19/1 3/2/1
f 3/4/2 7/20/2 8/5/2
f 7/7/3 5/21/3 6/8/3
f 2/10/4 4/22/4 8/11/4
f 1/13/5 3/23/5 4/14/5
f 5/16/6 1/24/6 2/17/6
