# Blender v3.0.0 OBJ File: ''
# www.blender.org
mtllib cuke1.mtl
o cuke
v -15.300000 -19.999998 -15.300002
v 15.299999 -19.999998 -15.300003
v 15.300000 -20.000002 15.299996
v -15.299999 -20.000002 15.299997
v 15.300000 20.000002 -15.299996
v -15.299999 20.000002 -15.299997
v -15.300000 19.999998 15.300002
v 15.299999 19.999998 15.300003
v 15.300000 15.299996 20.000002
v -15.299999 15.299996 20.000002
v -15.300000 -15.300002 19.999998
v 15.299999 -15.300003 19.999998
v 20.000000 -15.299997 -15.300003
v 20.000000 15.300002 -15.299996
v 20.000000 15.299996 15.300003
v 20.000000 -15.300002 15.299996
v -15.300000 15.300002 -19.999998
v 15.299999 15.300002 -19.999998
v 15.300000 -15.299997 -20.000002
v -15.299999 -15.299997 -20.000002
v -20.000000 -15.300003 15.299997
v -20.000000 15.299996 15.300002
v -20.000000 15.300002 -15.299997
v -20.000000 -15.299996 -15.300002
v -15.300000 -19.999996 -20.000004
v 15.299999 -19.999996 -20.000004
v 15.300000 -20.000004 19.999996
v -15.299999 -20.000004 19.999996
v 15.300000 20.000004 -19.999996
v -15.299999 20.000004 -19.999996
v -15.300000 19.999996 20.000004
v 15.299999 19.999996 20.000004
v 20.000000 -15.299997 -20.000002
v 20.000000 15.300002 -19.999998
v 20.000000 15.299996 20.000002
v 20.000000 -15.300003 19.999998
v -20.000000 -15.300002 19.999998
v -20.000000 15.299996 20.000002
v -20.000000 15.300002 -19.999998
v -20.000000 -15.299997 -20.000002
v 20.000000 20.000002 -15.299996
v 20.000000 19.999998 15.300003
v 20.000000 -20.000002 15.299996
v 20.000000 -19.999998 -15.300003
v -20.000000 19.999998 15.300002
v -20.000000 20.000002 -15.299997
v -20.000000 -19.999998 -15.300002
v -20.000000 -20.000002 15.299997
v 20.707108 15.300003 -20.707106
v 20.577351 20.577354 -20.577347
v 20.707108 20.707109 -15.299995
v 21.000000 15.300002 -15.299996
v 21.000000 -15.299997 -15.300003
v 20.707108 -20.707106 -15.300004
v 20.577351 -20.577347 -20.577354
v 20.707108 -15.299996 -20.707109
v 20.707108 -15.300004 20.707106
v 20.577351 -20.577354 20.577347
v 20.707108 -20.707109 15.299995
v 21.000000 -15.300002 15.299996
v 21.000000 15.299996 15.300003
v 20.707108 20.707106 15.300004
v 20.577351 20.577347 20.577354
v 20.707108 15.299995 20.707109
v -20.707108 15.299995 20.707109
v -20.577351 20.577347 20.577354
v -20.707108 20.707106 15.300003
v -21.000000 15.299996 15.300002
v -21.000000 -15.300003 15.299997
v -20.707108 -20.707109 15.299996
v -20.577351 -20.577354 20.577347
v -20.707108 -15.300003 20.707106
v -20.707108 -15.299996 -20.707109
v -20.577351 -20.577347 -20.577354
v -20.707108 -20.707106 -15.300003
v -21.000000 -15.299996 -15.300002
v -21.000000 15.300002 -15.299997
v -20.707108 20.707109 -15.299996
v -20.577351 20.577354 -20.577347
v -20.707108 15.300003 -20.707106
v 15.299999 -20.707104 -20.707111
v 15.299999 -20.999998 -15.300004
v -15.300000 -20.999998 -15.300003
v -15.300000 -20.707104 -20.707111
v -15.299999 -20.707111 20.707104
v -15.299999 -21.000002 15.299996
v 15.300000 -21.000002 15.299995
v 15.300000 -20.707111 20.707104
v -15.299999 20.707111 -20.707104
v -15.299999 21.000002 -15.299996
v 15.300000 21.000002 -15.299995
v 15.300000 20.707111 -20.707104
v 15.299999 20.707104 20.707111
v 15.299999 20.999998 15.300004
v -15.300000 20.999998 15.300003
v -15.300000 20.707104 20.707111
v -15.299999 15.299995 21.000002
v 15.300000 15.299995 21.000002
v 15.299999 -15.300004 20.999998
v -15.300000 -15.300003 20.999998
v 15.299999 15.300003 -20.999998
v -15.300000 15.300003 -20.999998
v -15.299999 -15.299996 -21.000002
v 15.300000 -15.299996 -21.000002
vt 0.725162 0.438652
vt 0.764182 0.430350
vt 0.764182 0.438652
vt 0.716860 0.477672
vt 0.719291 0.432781
vt 0.754132 0.342260
vt 0.762434 0.381280
vt 0.754132 0.381280
vt 0.715112 0.333958
vt 0.760002 0.336390
vt 0.675218 0.372978
vt 0.666916 0.333958
vt 0.675218 0.333958
vt 0.714238 0.381280
vt 0.669348 0.378848
vt 0.421174 0.802328
vt 0.382154 0.810630
vt 0.382154 0.802328
vt 0.429476 0.763308
vt 0.427044 0.808198
vt 0.723414 0.390456
vt 0.762434 0.382154
vt 0.762434 0.390456
vt 0.715112 0.429476
vt 0.717544 0.384586
vt 0.469370 0.705936
vt 0.430350 0.714238
vt 0.430350 0.705936
vt 0.477672 0.666916
vt 0.475240 0.711806
vt 0.755880 0.519314
vt 0.716860 0.527616
vt 0.716860 0.519314
vt 0.764182 0.480294
vt 0.761750 0.525184
vt 0.705936 0.390456
vt 0.714238 0.429476
vt 0.705936 0.429476
vt 0.666916 0.382154
vt 0.711806 0.384586
vt 0.470244 0.802328
vt 0.431224 0.810630
vt 0.431224 0.802328
vt 0.478546 0.763308
vt 0.476114 0.808198
vt 0.390456 0.754132
vt 0.382154 0.715112
vt 0.390456 0.715112
vt 0.429476 0.762434
vt 0.384586 0.760002
vt 0.439526 0.820680
vt 0.478546 0.812378
vt 0.478546 0.820680
vt 0.431224 0.859700
vt 0.433655 0.814809
vt 0.802328 0.372978
vt 0.763308 0.381280
vt 0.763308 0.372978
vt 0.810630 0.333958
vt 0.808198 0.378848
vt 0.675218 0.538540
vt 0.714238 0.530238
vt 0.714238 0.538540
vt 0.666916 0.577559
vt 0.669348 0.532669
vt 0.390456 0.705936
vt 0.382154 0.666916
vt 0.390456 0.666916
vt 0.429476 0.714238
vt 0.384586 0.711806
vt 0.342260 0.705936
vt 0.333958 0.666916
vt 0.342260 0.666916
vt 0.381280 0.714238
vt 0.336390 0.711806
vt 0.805824 0.469370
vt 0.766804 0.477672
vt 0.766804 0.469370
vt 0.814126 0.430350
vt 0.811694 0.475240
vt 0.705936 0.519314
vt 0.666916 0.527616
vt 0.666916 0.519314
vt 0.714238 0.480294
vt 0.711806 0.525184
vt 0.342260 0.819806
vt 0.381280 0.811504
vt 0.381280 0.819806
vt 0.333958 0.858826
vt 0.336390 0.813935
vt 0.705936 0.469370
vt 0.666916 0.477672
vt 0.666916 0.469370
vt 0.714238 0.430350
vt 0.711806 0.475240
vt 0.342260 0.802328
vt 0.333958 0.763308
vt 0.342260 0.763308
vt 0.381280 0.810630
vt 0.336390 0.808198
vt 0.421174 0.851398
vt 0.382154 0.859700
vt 0.382154 0.851398
vt 0.429476 0.812378
vt 0.427044 0.857268
vt 0.342260 0.754132
vt 0.333958 0.715112
vt 0.342260 0.715112
vt 0.381280 0.762434
vt 0.336390 0.760002
vt 0.675218 0.588484
vt 0.714238 0.580181
vt 0.714238 0.588484
vt 0.666916 0.627503
vt 0.669348 0.582613
vt 0.438652 0.723414
vt 0.477672 0.715112
vt 0.477672 0.723414
vt 0.430350 0.762434
vt 0.432781 0.717544
vt 0.725162 0.477672
vt 0.715112 0.342260
vt 0.714238 0.372978
vt 0.421174 0.763308
vt 0.723414 0.429476
vt 0.469370 0.666916
vt 0.755880 0.480294
vt 0.666916 0.390456
vt 0.470244 0.763308
vt 0.429476 0.754132
vt 0.439526 0.859700
vt 0.802328 0.333958
vt 0.675218 0.577559
vt 0.429476 0.705936
vt 0.381280 0.705936
vt 0.805824 0.430350
vt 0.705936 0.480294
vt 0.342260 0.858826
vt 0.705936 0.430350
vt 0.381280 0.802328
vt 0.421174 0.812378
vt 0.381280 0.754132
vt 0.675218 0.627503
vt 0.438652 0.762434
vt 0.627022 0.372978
vt 0.372978 0.627022
vt 0.372978 0.372978
vt 0.040020 0.959980
vt 0.294064 0.705936
vt 0.294064 0.959980
vt 0.372978 0.294064
vt 0.627022 0.040020
vt 0.627022 0.294064
vt 0.959980 0.294064
vt 0.705936 0.040020
vt 0.959980 0.040020
vt 0.040020 0.627022
vt 0.294064 0.372978
vt 0.294064 0.627022
vt 0.294064 0.294064
vt 0.040020 0.040020
vt 0.294064 0.040020
vt 0.627022 0.333958
vt 0.372978 0.333958
vt 0.372978 0.666042
vt 0.627022 0.627022
vt 0.627022 0.666042
vt 0.040020 0.999000
vt 0.294064 0.999000
vt 0.294064 0.666916
vt 0.040020 0.705936
vt 0.040020 0.666916
vt 0.999000 0.294064
vt 0.999000 0.040020
vt 0.666916 0.040020
vt 0.705936 0.294064
vt 0.666916 0.294064
vt 0.333084 0.294064
vt 0.333084 0.040020
vt 0.001000 0.040020
vt 0.040020 0.294064
vt 0.001000 0.294064
vt 0.372978 0.333084
vt 0.627022 0.333084
vt 0.627022 0.001000
vt 0.372978 0.040020
vt 0.372978 0.001000
vt 0.959980 0.333084
vt 0.705936 0.001000
vt 0.040020 0.666042
vt 0.294064 0.666042
vt 0.294064 0.333958
vt 0.040020 0.372978
vt 0.040020 0.333958
vt 0.294064 0.333084
vt 0.040020 0.001000
vt 0.425967 0.905261
vt 0.382154 0.861448
vt 0.427044 0.861448
vt 0.713554 0.630125
vt 0.757367 0.673938
vt 0.713554 0.675016
vt 0.524981 0.813455
vt 0.481168 0.857268
vt 0.481168 0.812378
vt 0.526058 0.808198
vt 0.569871 0.764385
vt 0.570948 0.808198
vt 0.524107 0.807121
vt 0.480294 0.763308
vt 0.525184 0.763308
vt 0.481168 0.903906
vt 0.524981 0.860093
vt 0.526058 0.903906
vt 0.522359 0.716189
vt 0.478546 0.760002
vt 0.478546 0.715112
vt 0.333958 0.904590
vt 0.377771 0.860777
vt 0.378848 0.904590
vt 0.666042 0.372978
vt 0.333958 0.627022
vt 0.001000 0.959980
vt 0.333084 0.705936
vt 0.333958 0.294064
vt 0.666042 0.040020
vt 0.001000 0.627022
vt 0.333084 0.372978
vt 0.710729 0.673938
vt 0.666916 0.630125
vt 0.711806 0.630125
vt 0.811504 0.333958
vt 0.855317 0.377771
vt 0.811504 0.378848
vt 0.813645 0.481371
vt 0.857458 0.525184
vt 0.812568 0.525184
vt 0.906528 0.475240
vt 0.862715 0.431427
vt 0.906528 0.430350
vt 0.717937 0.581259
vt 0.761750 0.625072
vt 0.716860 0.625072
vt 0.808198 0.427044
vt 0.764385 0.383231
vt 0.808198 0.382154
vt 0.806437 0.574051
vt 0.762624 0.530238
vt 0.807514 0.530238
vt 0.478546 0.666916
vt 0.522359 0.710729
vt 0.478546 0.711806
vt 0.767881 0.524107
vt 0.811694 0.480294
vt 0.811694 0.525184
vt 0.716860 0.530237
vt 0.760673 0.574051
vt 0.716860 0.575128
vt 0.710729 0.720577
vt 0.666916 0.676764
vt 0.711806 0.676764
vt 0.382154 0.952102
vt 0.425967 0.908289
vt 0.427044 0.952102
vt 0.816951 0.474163
vt 0.860764 0.430350
vt 0.860764 0.475240
vt 0.431224 0.862322
vt 0.475037 0.906135
vt 0.431224 0.907212
vt 0.475037 0.951899
vt 0.431224 0.908086
vt 0.476114 0.908086
vt 0.527806 0.857268
vt 0.571619 0.813455
vt 0.572696 0.857268
vt 0.705936 0.333084
vt 0.959980 0.001000
vt 0.040020 0.333084
vt 0.294064 0.001000
vt 0.382154 0.906338
vt 0.758445 0.630125
vt 0.526058 0.857268
vt 0.526058 0.763308
vt 0.480294 0.808198
vt 0.481168 0.859016
vt 0.523436 0.760002
vt 0.333958 0.859700
vt 0.666042 0.627022
vt 0.333958 0.372978
vt 0.001000 0.705936
vt 0.333084 0.959980
vt 0.333958 0.040020
vt 0.666042 0.294064
vt 0.001000 0.372978
vt 0.333084 0.627022
vt 0.666916 0.675016
vt 0.856394 0.333958
vt 0.857458 0.480294
vt 0.861638 0.475240
vt 0.761750 0.580181
vt 0.763308 0.427044
vt 0.762624 0.575128
vt 0.523436 0.666916
vt 0.766804 0.480294
vt 0.761750 0.530237
vt 0.666916 0.721654
vt 0.382154 0.907212
vt 0.815874 0.430350
vt 0.476114 0.862322
vt 0.431224 0.952976
vt 0.527806 0.812378
vn 0.0000 -0.0000 1.0000
vn 0.0000 -1.0000 0.0000
vn -1.0000 0.0000 0.0000
vn 0.0000 1.0000 0.0000
vn 0.0000 0.0000 -1.0000
vn 1.0000 0.0000 0.0000
vn 0.9984 0.0400 -0.0400
vn 0.9976 0.0116 -0.0683
vn 0.9971 -0.0540 -0.0540
vn 0.9994 -0.0252 -0.0252
vn 0.9982 -0.0259 -0.0541
vn 0.9984 -0.0400 0.0400
vn 0.9976 -0.0116 0.0683
vn 0.9971 0.0540 0.0540
vn 0.9994 0.0252 0.0252
vn 0.9982 0.0259 0.0541
vn -0.9984 0.0400 0.0400
vn -0.9976 0.0116 0.0683
vn -0.9971 -0.0540 0.0540
vn -0.9994 -0.0252 0.0252
vn -0.9982 -0.0259 0.0541
vn -0.9984 -0.0400 -0.0400
vn -0.9976 -0.0116 -0.0683
vn -0.9971 0.0540 -0.0540
vn -0.9994 0.0252 -0.0252
vn -0.9982 0.0259 -0.0541
vn 0.0400 -0.9984 -0.0400
vn 0.0116 -0.9976 -0.0683
vn -0.0540 -0.9971 -0.0540
vn -0.0252 -0.9994 -0.0252
vn -0.0259 -0.9982 -0.0541
vn -0.0400 -0.9984 0.0400
vn -0.0116 -0.9976 0.0683
vn 0.0540 -0.9971 0.0540
vn 0.0252 -0.9994 0.0252
vn 0.0259 -0.9982 0.0541
vn -0.0400 0.9984 -0.0400
vn -0.0116 0.9976 -0.0683
vn 0.0540 0.9971 -0.0540
vn 0.0252 0.9994 -0.0252
vn 0.0259 0.9982 -0.0541
vn 0.0400 0.9984 0.0400
vn 0.0116 0.9976 0.0683
vn -0.0540 0.9971 0.0540
vn -0.0252 0.9994 0.0252
vn -0.0259 0.9982 0.0541
vn -0.0400 0.0400 0.9984
vn -0.0116 0.0683 0.9976
vn 0.0540 0.0540 0.9971
vn 0.0252 0.0252 0.9994
vn 0.0259 0.0541 0.9982
vn 0.0400 -0.0400 0.9984
vn 0.0116 -0.0683 0.9976
vn -0.0540 -0.0540 0.9971
vn -0.0252 -0.0252 0.9994
vn -0.0259 -0.0541 0.9982
vn 0.0400 0.0400 -0.9984
vn 0.0116 0.0683 -0.9976
vn -0.0540 0.0540 -0.9971
vn -0.0252 0.0252 -0.9994
vn -0.0259 0.0541 -0.9982
vn -0.0400 -0.0400 -0.9984
vn -0.0116 -0.0683 -0.9976
vn 0.0540 -0.0540 -0.9971
vn 0.0252 -0.0252 -0.9994
vn 0.0259 -0.0541 -0.9982
vn 0.9976 0.0683 -0.0116
vn 0.9982 -0.0541 -0.0259
vn 0.9976 -0.0683 0.0116
vn 0.9982 0.0541 0.0259
vn -0.9976 0.0683 0.0116
vn -0.9982 -0.0541 0.0259
vn -0.9976 -0.0683 -0.0116
vn -0.9982 0.0541 -0.0259
vn 0.0683 -0.9976 -0.0116
vn -0.0541 -0.9982 -0.0259
vn -0.0683 -0.9976 0.0116
vn 0.0541 -0.9982 0.0259
vn -0.0683 0.9976 -0.0116
vn 0.0541 0.9982 -0.0259
vn 0.0683 0.9976 0.0116
vn -0.0541 0.9982 0.0259
vn -0.0683 0.0116 0.9976
vn 0.0541 0.0259 0.9982
vn 0.0683 -0.0116 0.9976
vn -0.0541 -0.0259 0.9982
vn 0.0683 0.0116 -0.9976
vn -0.0541 0.0259 -0.9982
vn -0.0683 -0.0116 -0.9976
vn 0.0541 -0.0259 -0.9982
usemtl Default_OBJ
s off
f 41/1/1 91/2/1 5/3/1
f 41/1/1 52/4/1 51/5/1
f 34/6/2 52/7/2 14/8/2
f 34/6/2 101/9/2 49/10/2
f 29/11/3 101/12/3 18/13/3
f 29/11/3 91/14/3 92/15/3
f 44/16/1 53/17/1 13/18/1
f 44/16/1 82/19/1 54/20/1
f 26/21/3 82/22/3 2/23/3
f 26/21/3 104/24/3 81/25/3
f 33/26/4 104/27/4 19/28/4
f 33/26/4 53/29/4 56/30/4
f 43/31/5 87/32/5 3/33/5
f 43/31/5 60/34/5 59/35/5
f 36/36/4 60/37/4 16/38/4
f 36/36/4 99/39/4 57/40/4
f 27/41/3 99/42/3 12/43/3
f 27/41/3 87/44/3 88/45/3
f 42/46/5 61/47/5 15/48/5
f 42/46/5 94/49/5 62/50/5
f 32/51/3 94/52/3 8/53/3
f 32/51/3 98/54/3 93/55/3
f 35/56/2 98/57/2 9/58/2
f 35/56/2 61/59/2 64/60/2
f 45/61/5 95/62/5 7/63/5
f 45/61/5 68/64/5 67/65/5
f 38/66/2 68/67/2 22/68/2
f 38/66/2 97/69/2 65/70/2
f 31/71/6 97/72/6 10/73/6
f 31/71/6 95/74/6 96/75/6
f 48/76/5 69/77/5 21/78/5
f 48/76/5 86/79/5 70/80/5
f 28/81/6 86/82/6 4/83/6
f 28/81/6 100/84/6 85/85/6
f 37/86/4 100/87/4 11/88/4
f 37/86/4 69/89/4 72/90/4
f 47/91/1 83/92/1 1/93/1
f 47/91/1 76/94/1 75/95/1
f 40/96/4 76/97/4 24/98/4
f 40/96/4 103/99/4 73/100/4
f 25/101/6 103/102/6 20/103/6
f 25/101/6 83/104/6 84/105/6
f 46/106/1 77/107/1 23/108/1
f 46/106/1 90/109/1 78/110/1
f 30/111/6 90/112/6 6/113/6
f 30/111/6 102/114/6 89/115/6
f 39/116/2 102/117/2 17/118/2
f 39/116/2 77/119/2 80/120/2
f 41/1/1 51/5/1 91/2/1
f 41/1/1 14/121/1 52/4/1
f 34/6/2 49/10/2 52/7/2
f 34/6/2 18/122/2 101/9/2
f 29/11/3 92/15/3 101/12/3
f 29/11/3 5/123/3 91/14/3
f 44/16/1 54/20/1 53/17/1
f 44/16/1 2/124/1 82/19/1
f 26/21/3 81/25/3 82/22/3
f 26/21/3 19/125/3 104/24/3
f 33/26/4 56/30/4 104/27/4
f 33/26/4 13/126/4 53/29/4
f 43/31/5 59/35/5 87/32/5
f 43/31/5 16/127/5 60/34/5
f 36/36/4 57/40/4 60/37/4
f 36/36/4 12/128/4 99/39/4
f 27/41/3 88/45/3 99/42/3
f 27/41/3 3/129/3 87/44/3
f 42/46/5 62/50/5 61/47/5
f 42/46/5 8/130/5 94/49/5
f 32/51/3 93/55/3 94/52/3
f 32/51/3 9/131/3 98/54/3
f 35/56/2 64/60/2 98/57/2
f 35/56/2 15/132/2 61/59/2
f 45/61/5 67/65/5 95/62/5
f 45/61/5 22/133/5 68/64/5
f 38/66/2 65/70/2 68/67/2
f 38/66/2 10/134/2 97/69/2
f 31/71/6 96/75/6 97/72/6
f 31/71/6 7/135/6 95/74/6
f 48/76/5 70/80/5 69/77/5
f 48/76/5 4/136/5 86/79/5
f 28/81/6 85/85/6 86/82/6
f 28/81/6 11/137/6 100/84/6
f 37/86/4 72/90/4 100/87/4
f 37/86/4 21/138/4 69/89/4
f 47/91/1 75/95/1 83/92/1
f 47/91/1 24/139/1 76/94/1
f 40/96/4 73/100/4 76/97/4
f 40/96/4 20/140/4 103/99/4
f 25/101/6 84/105/6 103/102/6
f 25/101/6 1/141/6 83/104/6
f 46/106/1 78/110/1 77/107/1
f 46/106/1 6/142/1 90/109/1
f 30/111/6 89/115/6 90/112/6
f 30/111/6 17/143/6 102/114/6
f 39/116/2 80/120/2 102/117/2
f 39/116/2 23/144/2 77/119/2
s 1
f 2/145/2 4/146/2 1/147/2
f 6/148/4 8/149/4 5/150/4
f 10/151/1 12/152/1 9/153/1
f 14/154/6 16/155/6 13/156/6
f 18/157/5 20/158/5 17/159/5
f 22/160/3 24/161/3 21/162/3
f 26/163/2 1/147/2 25/164/2
f 28/165/2 3/166/2 27/167/2
f 30/168/4 5/150/4 29/169/4
f 32/170/4 7/171/4 31/172/4
f 34/173/6 13/156/6 33/174/6
f 36/175/6 15/176/6 35/177/6
f 38/178/3 21/162/3 37/179/3
f 40/180/3 23/181/3 39/182/3
f 31/183/1 9/153/1 32/184/1
f 27/185/1 11/186/1 28/187/1
f 41/188/6 15/176/6 14/154/6
f 43/189/6 13/156/6 16/155/6
f 29/190/5 17/159/5 30/191/5
f 25/192/5 19/193/5 26/194/5
f 45/195/3 23/181/3 22/160/3
f 47/196/3 21/162/3 24/161/3
f 50/197/7 52/198/7 49/199/8
f 53/200/9 55/201/10 56/202/11
f 58/203/12 60/204/12 57/205/13
f 61/206/14 63/207/15 64/208/16
f 66/209/17 68/210/17 65/211/18
f 69/212/19 71/213/20 72/214/21
f 74/215/22 76/216/22 73/217/23
f 77/218/24 79/219/25 80/220/26
f 44/221/2 3/166/2 2/145/2
f 48/222/2 1/147/2 4/146/2
f 46/223/4 7/171/4 6/148/4
f 42/224/4 5/150/4 8/149/4
f 38/225/1 11/186/1 10/151/1
f 36/226/1 9/153/1 12/152/1
f 34/227/5 19/193/5 18/157/5
f 40/228/5 17/159/5 20/158/5
f 55/229/27 82/230/27 81/231/28
f 83/232/29 74/233/30 84/234/31
f 71/235/32 86/236/32 85/237/33
f 87/238/34 58/239/35 88/240/36
f 79/241/37 90/242/37 89/243/38
f 91/244/39 50/245/40 92/246/41
f 63/247/42 94/248/42 93/249/43
f 95/250/44 66/251/45 96/252/46
f 66/253/47 97/254/47 96/255/48
f 98/256/49 63/257/50 93/258/51
f 58/259/52 99/260/52 88/261/53
f 100/262/54 71/263/55 85/264/56
f 50/265/57 101/266/57 92/267/58
f 102/268/59 79/269/60 89/270/61
f 74/271/62 103/272/62 84/273/63
f 104/274/64 55/275/65 81/276/66
f 2/145/2 3/166/2 4/146/2
f 6/148/4 7/171/4 8/149/4
f 10/151/1 11/186/1 12/152/1
f 14/154/6 15/176/6 16/155/6
f 18/157/5 19/193/5 20/158/5
f 22/160/3 23/181/3 24/161/3
f 26/163/2 2/145/2 1/147/2
f 28/165/2 4/146/2 3/166/2
f 30/168/4 6/148/4 5/150/4
f 32/170/4 8/149/4 7/171/4
f 34/173/6 14/154/6 13/156/6
f 36/175/6 16/155/6 15/176/6
f 38/178/3 22/160/3 21/162/3
f 40/180/3 24/161/3 23/181/3
f 31/183/1 10/151/1 9/153/1
f 27/185/1 12/152/1 11/186/1
f 41/188/6 42/277/6 15/176/6
f 43/189/6 44/278/6 13/156/6
f 29/190/5 18/157/5 17/159/5
f 25/192/5 20/158/5 19/193/5
f 45/195/3 46/279/3 23/181/3
f 47/196/3 48/280/3 21/162/3
f 50/197/7 51/281/67 52/198/7
f 53/200/9 54/282/68 55/201/10
f 58/203/12 59/283/69 60/204/12
f 61/206/14 62/284/70 63/207/15
f 66/209/17 67/285/71 68/210/17
f 69/212/19 70/286/72 71/213/20
f 74/215/22 75/287/73 76/216/22
f 77/218/24 78/288/74 79/219/25
f 44/221/2 43/289/2 3/166/2
f 48/222/2 47/290/2 1/147/2
f 46/223/4 45/291/4 7/171/4
f 42/224/4 41/292/4 5/150/4
f 38/225/1 37/293/1 11/186/1
f 36/226/1 35/294/1 9/153/1
f 34/227/5 33/295/5 19/193/5
f 40/228/5 39/296/5 17/159/5
f 55/229/27 54/297/75 82/230/27
f 83/232/29 75/298/76 74/233/30
f 71/235/32 70/299/77 86/236/32
f 87/238/34 59/300/78 58/239/35
f 79/241/37 78/301/79 90/242/37
f 91/244/39 51/302/80 50/245/40
f 63/247/42 62/303/81 94/248/42
f 95/250/44 67/304/82 66/251/45
f 66/253/47 65/305/83 97/254/47
f 98/256/49 64/306/84 63/257/50
f 58/259/52 57/307/85 99/260/52
f 100/262/54 72/308/86 71/263/55
f 50/265/57 49/309/87 101/266/57
f 102/268/59 80/310/88 79/269/60
f 74/271/62 73/311/89 103/272/62
f 104/274/64 56/312/90 55/275/65
