# Blender v3.0.0 OBJ File: ''
# www.blender.org
mtllib plane.mtl
o Plane
v 175.000000 -0.000099 200.000000
v 200.000000 -0.000078 162.500000
v 162.500000 -0.000099 200.000000
v -150.000000 0.000099 -200.000000
v -162.500000 0.000099 -200.000000
v -200.000000 0.000078 -162.500000
v -175.000000 0.000099 -200.000000
v -200.000000 0.000087 -175.000000
v -187.500000 0.000099 -200.000000
v -200.000000 0.000099 -200.000000
v -200.000000 0.000093 -187.500000
v -137.500000 0.000099 -200.000000
v -200.000000 0.000072 -150.000000
v -112.500000 0.000099 -200.000000
v -125.000000 0.000099 -200.000000
v -200.000000 0.000060 -125.000000
v -200.000000 0.000066 -137.500000
v -87.500000 0.000099 -200.000000
v -100.000000 0.000099 -200.000000
v -200.000000 0.000048 -100.000000
v -200.000000 0.000054 -112.500000
v -62.500000 0.000099 -200.000000
v -75.000000 0.000099 -200.000000
v -200.000000 0.000036 -75.000000
v -200.000000 0.000042 -87.500000
v -37.500000 0.000099 -200.000000
v -50.000000 0.000099 -200.000000
v -200.000000 0.000024 -50.000000
v -200.000000 0.000030 -62.500000
v -12.500000 0.000099 -200.000000
v -25.000000 0.000099 -200.000000
v -200.000000 0.000012 -25.000000
v -200.000000 0.000018 -37.500000
v 12.500000 0.000099 -200.000000
v 0.000000 0.000099 -200.000000
v -200.000000 0.000000 0.000000
v -200.000000 0.000006 -12.500000
v 37.500000 0.000099 -200.000000
v 25.000000 0.000099 -200.000000
v 200.000000 0.000012 -25.000000
v 200.000000 0.000006 -12.500000
v -12.500000 -0.000099 200.000000
v -200.000000 -0.000006 12.500000
v -200.000000 -0.000012 25.000000
v -25.000000 -0.000099 200.000000
v 62.500000 0.000099 -200.000000
v 50.000000 0.000099 -200.000000
v 200.000000 0.000024 -50.000000
v 200.000000 0.000018 -37.500000
v -50.000000 -0.000099 200.000000
v -200.000000 -0.000018 37.500000
v -200.000000 -0.000024 50.000000
v -37.500000 -0.000099 200.000000
v -62.500000 -0.000099 200.000000
v 0.000000 -0.000099 200.000000
v 87.500000 0.000099 -200.000000
v 75.000000 0.000099 -200.000000
v 200.000000 0.000036 -75.000000
v 200.000000 0.000030 -62.500000
v -200.000000 -0.000030 62.500000
v -200.000000 -0.000036 75.000000
v -75.000000 -0.000099 200.000000
v 112.500000 0.000099 -200.000000
v 100.000000 0.000099 -200.000000
v 200.000000 0.000048 -100.000000
v 200.000000 0.000042 -87.500000
v -200.000000 -0.000042 87.500000
v -87.500000 -0.000099 200.000000
v -200.000000 -0.000048 100.000000
v 137.500000 0.000099 -200.000000
v 125.000000 0.000099 -200.000000
v 200.000000 0.000060 -125.000000
v 200.000000 0.000054 -112.500000
v 200.000000 0.000000 0.000000
v -200.000000 -0.000054 112.500000
v -100.000000 -0.000099 200.000000
v -200.000000 -0.000060 125.000000
v -112.500000 -0.000099 200.000000
v 162.500000 0.000099 -200.000000
v 150.000000 0.000099 -200.000000
v 200.000000 0.000072 -150.000000
v 200.000000 0.000066 -137.500000
v -200.000000 -0.000066 137.500000
v -125.000000 -0.000099 200.000000
v -200.000000 -0.000072 150.000000
v -137.500000 -0.000099 200.000000
v 187.500000 0.000099 -200.000000
v 175.000000 0.000099 -200.000000
v 200.000000 0.000087 -175.000000
v 200.000000 0.000078 -162.500000
v -200.000000 -0.000078 162.500000
v -162.500000 -0.000099 200.000000
v -200.000000 -0.000087 175.000000
v -175.000000 -0.000099 200.000000
v -150.000000 -0.000099 200.000000
v 200.000000 0.000093 -187.500000
v 200.000000 0.000099 -200.000000
v -200.000000 -0.000093 187.500000
v -187.500000 -0.000099 200.000000
v -200.000000 -0.000099 200.000000
v 200.000000 -0.000006 12.500000
v 12.500000 -0.000099 200.000000
v 25.000000 -0.000099 200.000000
v 200.000000 -0.000012 25.000000
v 200.000000 -0.000024 50.000000
v 200.000000 -0.000018 37.500000
v 50.000000 -0.000099 200.000000
v 37.500000 -0.000099 200.000000
v 62.500000 -0.000099 200.000000
v 200.000000 -0.000030 62.500000
v 200.000000 -0.000042 87.500000
v 200.000000 -0.000036 75.000000
v 87.500000 -0.000099 200.000000
v 75.000000 -0.000099 200.000000
v 100.000000 -0.000099 200.000000
v 200.000000 -0.000060 125.000000
v 200.000000 -0.000054 112.500000
v 125.000000 -0.000099 200.000000
v 200.000000 -0.000048 100.000000
v 112.500000 -0.000099 200.000000
v 200.000000 -0.000072 150.000000
v 200.000000 -0.000066 137.500000
v 150.000000 -0.000099 200.000000
v 137.500000 -0.000099 200.000000
v 200.000000 -0.000099 200.000000
v 200.000000 -0.000093 187.500000
v 187.500000 -0.000099 200.000000
v 200.000000 -0.000087 175.000000
vt 33.188202 -36.857952
vt 37.857952 -29.853338
vt 30.853338 -36.857952
vt -27.518463 37.857952
vt -29.853338 37.857952
vt -36.857952 30.853338
vt -32.188202 37.857952
vt -36.857952 33.188202
vt -34.523067 37.857952
vt -36.857952 37.857952
vt -36.857952 35.523083
vt -25.183584 37.857952
vt -36.857952 28.518459
vt -20.513849 37.857952
vt -22.848715 37.857952
vt -36.857952 23.848717
vt -36.857952 26.183582
vt -15.844109 37.857952
vt -18.178974 37.857952
vt -36.857952 19.178974
vt -36.857952 21.513849
vt -11.174367 37.857952
vt -13.509232 37.857952
vt -36.857952 14.509230
vt -36.857952 16.844109
vt -6.504608 37.857952
vt -8.839486 37.857952
vt -36.857952 9.839485
vt -36.857952 12.174367
vt -1.834880 37.857952
vt -4.169743 37.857952
vt -36.857952 5.169743
vt -36.857952 7.504608
vt 2.834877 37.857952
vt 0.500000 37.857952
vt -36.857952 0.500000
vt -36.857952 2.834877
vt 7.504608 37.857952
vt 5.169743 37.857952
vt 37.857952 5.169743
vt 37.857952 2.834877
vt -1.834880 -36.857952
vt -36.857952 -1.834880
vt -36.857952 -4.169743
vt -4.169743 -36.857952
vt 12.174367 37.857952
vt 9.839485 37.857952
vt 37.857952 9.839485
vt 37.857952 7.504608
vt -8.839486 -36.857952
vt -36.857952 -6.504608
vt -36.857952 -8.839486
vt -6.504608 -36.857952
vt -11.174367 -36.857952
vt 0.500000 -36.857952
vt 16.844109 37.857952
vt 14.509230 37.857952
vt 37.857952 14.509230
vt 37.857952 12.174367
vt -36.857952 -11.174367
vt -36.857952 -13.509232
vt -13.509232 -36.857952
vt 21.513849 37.857952
vt 19.178974 37.857952
vt 37.857952 19.178974
vt 37.857952 16.844109
vt -36.857952 -15.844109
vt -15.844109 -36.857952
vt -36.857952 -18.178974
vt 26.183582 37.857952
vt 23.848717 37.857952
vt 37.857952 23.848717
vt 37.857952 21.513849
vt 37.857952 0.500000
vt -36.857952 -20.513849
vt -18.178974 -36.857952
vt -36.857952 -22.848715
vt -20.513849 -36.857952
vt 30.853338 37.857952
vt 28.518459 37.857952
vt 37.857952 28.518459
vt 37.857952 26.183582
vt -36.857952 -25.183584
vt -22.848715 -36.857952
vt -36.857952 -27.518463
vt -25.183584 -36.857952
vt 35.523083 37.857952
vt 33.188202 37.857952
vt 37.857952 33.188202
vt 37.857952 30.853338
vt -36.857952 -29.853338
vt -29.853338 -36.857952
vt -36.857952 -32.188202
vt -32.188202 -36.857952
vt -27.518463 -36.857952
vt 37.857952 35.523083
vt 37.857952 37.857952
vt -36.857952 -34.523067
vt -34.523067 -36.857952
vt -36.857952 -36.857952
vt 37.857952 -1.834880
vt 2.834877 -36.857952
vt 5.169743 -36.857952
vt 37.857952 -4.169743
vt 37.857952 -8.839486
vt 37.857952 -6.504608
vt 9.839485 -36.857952
vt 7.504608 -36.857952
vt 12.174367 -36.857952
vt 37.857952 -11.174367
vt 37.857952 -15.844109
vt 37.857952 -13.509232
vt 16.844109 -36.857952
vt 14.509230 -36.857952
vt 19.178974 -36.857952
vt 37.857952 -22.848715
vt 37.857952 -20.513849
vt 23.848717 -36.857952
vt 37.857952 -18.178974
vt 21.513849 -36.857952
vt 37.857952 -27.518463
vt 37.857952 -25.183584
vt 28.518459 -36.857952
vt 26.183582 -36.857952
vt 37.857952 -36.857952
vt 37.857952 -34.523067
vt 35.523083 -36.857952
vt 37.857952 -32.188202
vn 0.0000 1.0000 0.0000
usemtl None
s 1
f 7/1/1 6/2/1 5/3/1
f 123/4/1 3/5/1 2/6/1
f 3/5/1 1/7/1 128/8/1
f 127/9/1 125/10/1 126/11/1
f 124/12/1 123/4/1 121/13/1
f 3/5/1 128/8/1 2/6/1
f 1/7/1 127/9/1 126/11/1
f 2/6/1 121/13/1 123/4/1
f 1/7/1 126/11/1 128/8/1
f 120/14/1 118/15/1 116/16/1
f 118/15/1 124/12/1 122/17/1
f 122/17/1 124/12/1 121/13/1
f 122/17/1 116/16/1 118/15/1
f 113/18/1 115/19/1 119/20/1
f 115/19/1 120/14/1 117/21/1
f 117/21/1 120/14/1 116/16/1
f 117/21/1 119/20/1 115/19/1
f 109/22/1 114/23/1 112/24/1
f 114/23/1 113/18/1 111/25/1
f 111/25/1 113/18/1 119/20/1
f 111/25/1 112/24/1 114/23/1
f 108/26/1 107/27/1 105/28/1
f 107/27/1 109/22/1 110/29/1
f 110/29/1 109/22/1 112/24/1
f 110/29/1 105/28/1 107/27/1
f 102/30/1 103/31/1 104/32/1
f 103/31/1 108/26/1 106/33/1
f 106/33/1 108/26/1 105/28/1
f 106/33/1 104/32/1 103/31/1
f 42/34/1 55/35/1 74/36/1
f 55/35/1 102/30/1 101/37/1
f 101/37/1 102/30/1 104/32/1
f 101/37/1 74/36/1 55/35/1
f 53/38/1 45/39/1 44/40/1
f 45/39/1 42/34/1 43/41/1
f 34/42/1 74/36/1 41/43/1
f 41/43/1 40/44/1 39/45/1
f 54/46/1 50/47/1 52/48/1
f 50/47/1 53/38/1 51/49/1
f 47/50/1 49/51/1 48/52/1
f 74/36/1 34/42/1 42/34/1
f 40/44/1 49/51/1 38/53/1
f 48/52/1 46/54/1 47/50/1
f 42/34/1 34/42/1 35/55/1
f 34/42/1 41/43/1 39/45/1
f 68/56/1 62/57/1 61/58/1
f 62/57/1 54/46/1 60/59/1
f 49/51/1 47/50/1 38/53/1
f 48/52/1 59/60/1 46/54/1
f 59/60/1 58/61/1 57/62/1
f 59/60/1 57/62/1 46/54/1
f 78/63/1 76/64/1 69/65/1
f 76/64/1 68/56/1 67/66/1
f 40/44/1 38/53/1 39/45/1
f 58/61/1 66/67/1 56/68/1
f 66/67/1 65/69/1 56/68/1
f 58/61/1 56/68/1 57/62/1
f 86/70/1 84/71/1 77/72/1
f 84/71/1 78/63/1 75/73/1
f 43/41/1 42/34/1 36/74/1
f 65/69/1 73/75/1 64/76/1
f 73/75/1 72/77/1 63/78/1
f 42/34/1 35/55/1 36/74/1
f 92/79/1 95/80/1 85/81/1
f 95/80/1 86/70/1 83/82/1
f 51/49/1 53/38/1 44/40/1
f 44/40/1 45/39/1 43/41/1
f 72/77/1 82/83/1 71/84/1
f 82/83/1 81/85/1 70/86/1
f 64/76/1 73/75/1 63/78/1
f 56/68/1 65/69/1 64/76/1
f 99/87/1 94/88/1 93/89/1
f 94/88/1 92/79/1 91/90/1
f 52/48/1 50/47/1 51/49/1
f 81/85/1 90/91/1 79/92/1
f 90/91/1 89/93/1 88/94/1
f 81/85/1 79/92/1 80/95/1
f 98/96/1 100/97/1 99/87/1
f 62/57/1 60/59/1 61/58/1
f 77/72/1 84/71/1 75/73/1
f 89/93/1 96/98/1 87/99/1
f 96/98/1 97/100/1 87/99/1
f 89/93/1 87/99/1 88/94/1
f 93/89/1 98/96/1 99/87/1
f 83/82/1 85/81/1 95/80/1
f 85/81/1 91/90/1 92/79/1
f 94/88/1 91/90/1 93/89/1
f 90/91/1 88/94/1 79/92/1
f 69/65/1 75/73/1 78/63/1
f 77/72/1 83/82/1 86/70/1
f 80/95/1 70/86/1 81/85/1
f 70/86/1 71/84/1 82/83/1
f 61/58/1 67/66/1 68/56/1
f 67/66/1 69/65/1 76/64/1
f 71/84/1 63/78/1 72/77/1
f 52/48/1 60/59/1 54/46/1
f 37/101/1 36/74/1 30/102/1
f 30/102/1 36/74/1 35/55/1
f 37/101/1 30/102/1 31/103/1
f 31/103/1 32/104/1 37/101/1
f 28/105/1 33/106/1 27/107/1
f 33/106/1 32/104/1 26/108/1
f 32/104/1 31/103/1 26/108/1
f 28/105/1 27/107/1 22/109/1
f 33/106/1 26/108/1 27/107/1
f 28/105/1 22/109/1 29/110/1
f 25/111/1 24/112/1 18/113/1
f 24/112/1 29/110/1 23/114/1
f 18/113/1 24/112/1 23/114/1
f 23/114/1 29/110/1 22/109/1
f 25/111/1 18/113/1 19/115/1
f 16/116/1 21/117/1 15/118/1
f 21/117/1 20/119/1 14/120/1
f 21/117/1 14/120/1 15/118/1
f 20/119/1 25/111/1 19/115/1
f 20/119/1 19/115/1 14/120/1
f 6/2/1 13/121/1 5/3/1
f 13/121/1 17/122/1 4/123/1
f 4/123/1 17/122/1 12/124/1
f 17/122/1 16/116/1 12/124/1
f 12/124/1 16/116/1 15/118/1
f 5/3/1 13/121/1 4/123/1
f 10/125/1 11/126/1 9/127/1
f 11/126/1 8/128/1 9/127/1
f 9/127/1 8/128/1 7/1/1
f 8/128/1 6/2/1 7/1/1
